<?xml version="1.0" encoding="UTF-8"?>
<svg id="layer1" xmlns="http://www.w3.org/2000/svg" width="200" height="200" version="1.1" viewBox="0 0 200 200">
  <path id="sausage2" d="M68.2,72.3c-17,19.8-38.2,33-49.3,51.4-5.6,9.3-10.7,34.4,5.2,53.4,10.7,12.8,39.4,21.8,62.7,11.2,23.8-10.9,44.5-26.9,61.8-47.2,17.4-20.3,30-43.2,37.1-68.4,6.9-24.6-6.5-51.7-20.8-60.2-21.2-12.7-45.3-3.8-53.6,3.2-16.5,13.8-26.2,36.9-43.2,56.7Z" fill="#ea9e6a" stroke-width="0"/>
  <path id="shade1" d="M13.6,141.5c-1,11,1,24.4,10.4,35.6,10.7,12.8,39.4,21.8,62.7,11.2,23.8-10.9,44.5-26.9,61.8-47.2,9.6-11.2,17.7-23.2,24.3-35.9-40,41.5-117.8,87.7-159.2,36.4Z" fill="#d8855b" stroke-width="0"/>
  <path id="sausage1" d="M100.4,39.9c-6.2,10.1-19.1,23.5-12.4,27.1s15.4-1.9,27.8-22c10.2-16.4,19-24.9,12.2-29s-15.2,3.8-27.6,23.9Z" fill="#ffe5d4" stroke-width="0"/>
  <path id="line1" d="M68.2,72.3c-17,19.8-38.2,33-49.3,51.4-5.6,9.3-10.7,34.4,5.2,53.4,10.7,12.8,39.4,21.8,62.7,11.2,23.8-10.9,44.5-26.9,61.8-47.2,17.4-20.3,30-43.2,37.1-68.4,6.9-24.6-6.5-51.7-20.8-60.2-21.2-12.7-45.3-3.8-53.6,3.2-16.5,13.8-26.2,36.9-43.2,56.7Z" fill="none" stroke="#333" stroke-linecap="round" stroke-linejoin="round" stroke-width="7"/>
</svg>