<?xml version="1.0" encoding="UTF-8"?>
<svg id="layer1" xmlns="http://www.w3.org/2000/svg" width="200" height="200" version="1.1" viewBox="0 0 200 200">
  <path id="leaf2" d="M193.36,92.75c9.38,40.44-29.37,83.97-29.37,83.97,0,0-53.96-22.03-63.34-62.47s12.76-79.01,29.37-83.97c15.58-4.66,53.96,22.03,63.34,62.47Z" fill="#6da06a" stroke-width="0"/>
  <path id="leaf1" d="M163.49,176.69c-3.9-25.9-14.66-92.07-23.49-97.69-8.97-5.71-37.91,14.54-37.95,40.11,11.42,35.06,55.76,55.14,61.44,57.58Z" fill="#4e7f4a" stroke-width="0"/>
  <path id="line5" d="M146.5,33.5c17.81,7.41,39.69,29.31,46.73,59.67,9.38,40.44-29.37,83.97-29.37,83.97,0,0-11.62-4.67-27.36-16.65" fill="none" stroke="#333" stroke-linecap="round" stroke-linejoin="round" stroke-width="7"/>
  <path id="cacao2" d="M112.5,30.5s11.26-25.95,14.51-24.53c3.49,1.53,14.49,6.53,14.3,8.17-.6,5.33-12.81,26.36-12.81,26.36" fill="#5e4a31" stroke="#333" stroke-miterlimit="10" stroke-width="7"/>
  <path id="cacao1" d="M142.96,122.82c-23.1,59.19-76.47,78.16-119.39,70.29-14.38-33.63-38.32-81.56,14.39-139.29,21-23,60-32,73.01-23.09,2.72,1.86,5.83,3.52,8.88,5.73,24.1,6.35,39.1,45.35,23.1,86.35Z" fill="#e0945c" stroke-width="0"/>
  <path id="shade1" d="M139,133c-59.34,37.17-109.66,46.43-129,24,2.42,12.71,9.56,24.8,14.14,35.53,40.09,7.35,88.61-9.53,114.86-59.53Z" fill="#b56d3c" stroke-width="0"/>
  <path id="line4" d="M98,37c-16,2-60.99,55.58-71.44,109.93" fill="none" stroke="#754e2f" stroke-linecap="round" stroke-linejoin="round" stroke-width="6"/>
  <path id="line3" d="M111,44c-2.56,8.07-35,75-72.44,132.93" fill="none" stroke="#754e2f" stroke-linecap="round" stroke-linejoin="round" stroke-width="6"/>
  <path id="line2" d="M127,52c9.85,31.15-15,85.73-56,120" fill="none" stroke="#754e2f" stroke-linecap="round" stroke-linejoin="round" stroke-width="6"/>
  <path id="line1" d="M143.5,122.5c-23.1,59.19-76.47,78.16-119.39,70.29-14.38-33.63-38.32-81.56,14.39-139.29,21-23,60-32,73.01-23.09,2.72,1.86,5.83,3.52,8.88,5.73,24.1,6.35,39.1,45.35,23.1,86.35Z" fill="none" stroke="#333" stroke-linecap="round" stroke-linejoin="round" stroke-width="7"/>
</svg>