<?xml version="1.0" encoding="UTF-8"?>
<svg id="layer1" xmlns="http://www.w3.org/2000/svg" width="200" height="200" version="1.1" viewBox="0 0 200 200">
  <path id="mushroom2" d="M126.8,158.4c9.3,26.9-6.3,33.9-18.5,36s-33.7-.5-37.5-26.2c-3.8-25.7,14.9-69.6,31-72s16.5,37.6,25,62.2Z" fill="#efca89" stroke-width="0"/>
  <path id="mushroom2-2" data-name="mushroom2" d="M122.8,144c1.2,5.2,2.4,8.2,4,12.6,9.3,26.9-6.3,33.9-18.5,36s-33.7-.5-37.5-26.2c-.8-5.5-.6-9.9.4-16.5" fill="none" stroke="#333" stroke-linecap="round" stroke-linejoin="round" stroke-width="7"/>
  <path id="mushroom1" d="M193.5,94.9c6.5,29.8-16.8,39.5-53.8,35.6-33.7-3.5-59.9,8.1-84.7,8.1s-53,0-49.2-46.1C9.7,45.9,70,8.7,99.6,8.7c43.5,0,83.6,39.3,93.9,86.2Z" fill="#b27054" stroke-width="0"/>
  <path id="shade1" d="M193.4,95.2c6.5,29.8-16.8,39.5-53.8,35.6-33.6-3.5-59.9,8.1-84.7,8.1s-47.4,0-49.4-35.5c25.1,25.9,167,16.9,184-22h0c1.6,4.5,2.9,9.1,3.9,13.7Z" fill="#845444" stroke-width="0"/>
  <path id="line1" d="M189.5,81.5c1.6,4.5,2.9,9.1,3.9,13.8,6.5,29.8-16.8,39.5-53.8,35.6-33.6-3.5-59.9,8.1-84.7,8.1s-47.4,0-49.4-35.5c-.2-3.2-.1-6.8.2-10.6C9.7,46.2,70,9,99.6,9s75.6,31.9,89.9,72.5Z" fill="none" stroke="#333" stroke-miterlimit="10" stroke-width="7"/>
</svg>