<?xml version="1.0" encoding="UTF-8"?>
<svg id="layer1" xmlns="http://www.w3.org/2000/svg" width="200" height="200" version="1.1" viewBox="0 0 200 200">
  <path id="milk" d="M139.8,194.7s5-.3,9.2-3.4c4-3,6.3-6.8,6.3-10.3,0-3.5,0-92.4,0-92.4,0,0-.2-7.5-2.4-12.5-3.8-8.4-17.3-37.6-17.6-40.8-.2-2.3-.3-7,.2-7.2,5.5-1.2,12.9-4.6,10.8-12.7-2.3-8.7-10.7-7.9-10.7-7.9h-71.1s-8.4-.8-10.7,7.9,5.3,11.6,10.8,12.7c.5.2.4,4.9.2,7.2-.3,3.3-13.8,32.4-17.6,40.8-2.3,5-2.4,12.5-2.4,12.5v92.4c0,3.5,2.3,7.3,6.3,10.3,4.2,3.1,9.2,3.4,9.2,3.4h79.6Z" fill="#fcfcfc" stroke-width="0"/>
  <path id="shade2" d="M155.3,88.3v92.4c0,3.5-2.3,7.3-6.3,10.3-4.2,3.1-9.2,3.4-9.2,3.4h-37.9c21.8-2.1,33.1-12.2,33.4-19.2s0-140.4,0-140.4c.3,3.3,13.8,32.4,17.6,40.9,2.3,5,2.4,12.5,2.4,12.5Z" fill="#e5e5df" stroke-width="0"/>
  <rect id="lable1" x="44.7" y="95.6" width="110.5" height="56.4" fill="#4c6dc1" stroke-width="0"/>
  <path id="shade1" d="M155.6,95.6h-20v56.4h20v-56.4Z" fill="#4850b5" stroke-width="0"/>
  <path id="line" d="M113.9,194.5h25.9s5-.3,9.2-3.4c4-3,6.3-6.8,6.3-10.3v-92.4s-.2-7.5-2.4-12.5c-3.8-8.4-17.3-37.6-17.6-40.9-.2-2.3-.3-7,.2-7.2,5.5-1.2,12.9-4.6,10.8-12.7-2.3-8.7-10.7-7.9-10.7-7.9h-71.1s-8.4-.8-10.7,7.9c-2.2,8.1,5.3,11.6,10.8,12.7.5.2.4,4.9.2,7.2-.3,3.3-13.8,32.4-17.6,40.9-2.3,5-2.4,12.5-2.4,12.5v92.4c0,3.5,2.3,7.3,6.3,10.3,4.2,3.1,9.2,3.4,9.2,3.4h53.7Z" fill="none" stroke="#333" stroke-miterlimit="10" stroke-width="8"/>
</svg>