<?xml version="1.0" encoding="UTF-8"?>
<svg id="layer1" xmlns="http://www.w3.org/2000/svg" width="200" height="200" version="1.1" viewBox="0 0 200 200">
  <path id="tail2" d="M139.7,6.2c17.4-2.6,74,34,48.1,95.2-4.6,10.9-86.1,1.8-103.1,20.8s6.9,54.6,34.2,70.9c-35,5.5-116.4-19.4-111.2-86.9C10.7,67.2,52.7,19.2,139.7,6.2Z" fill="#f2bbc4" stroke-width="0"/>
  <path id="tail1" d="M7.7,106.2c.8-10,4.1-20.6,10.1-31.1.4,0,.7-.1,1.1-.2,51-7,64,28,65.2,47.9-19.7,23.1,7.7,54.1,34.8,70.3-35,5.5-116.4-19.4-111.2-86.9Z" fill="#fcfafa" stroke-width="0"/>
  <path id="shade2" d="M94.1,172.9c9.3,17.7-24.9,6.6-73.6-20.7,23.4,32.7,73.4,44.8,98.7,40.8-8.9-5.4-17.9-12.3-25.2-20.1Z" fill="#d6c8cc" stroke-width="0"/>
  <path id="shade1" d="M85,122c-5-18,96-24,108-48,.8,11.8-2,22-5.2,27.4-6,10.1-85.4,1.9-102.8,20.6Z" fill="#d898a5" stroke-width="0"/>
  <path id="line1" d="M139.7,6.2c17.4-2.6,74,34,48.1,95.2-4.6,10.9-86.1,1.8-103.1,20.8s6.9,54.6,34.2,70.9c-35,5.5-116.4-19.4-111.2-86.9C10.7,67.2,52.7,19.2,139.7,6.2Z" fill="none" stroke="#333" stroke-linecap="round" stroke-linejoin="round" stroke-width="7"/>
</svg>