<?xml version="1.0" encoding="UTF-8"?>
<svg id="layer1" xmlns="http://www.w3.org/2000/svg" width="200" height="200" version="1.1" viewBox="0 0 200 200">
  <path id="potato1" d="M9.5,72.9c6.7-11.9,36.3-52.2,73.9-53.2,54.7-1.4,70,18.5,83.3,31.8,16.5,16.5,43.5,58.4,17.5,89.8-20.2,24.4-38.9,33.6-66.8,38.5-34.6,6.1-74.4-4.1-93.7-21.4S3.3,83.9,9.5,72.9Z" fill="#f4bf7a" stroke-width="0"/>
  <path id="shade1" d="M180.2,120.8c-29.3,11.9-40,23.1-67.9,28-34.6,6.1-69.6-11.6-93.7-21.4-6.2-2.5-10.7-7.4-13.8-13.6,1.5,16.3,6.7,33.6,18.9,44.6,19.4,17.3,59.1,27.5,93.7,21.4,27.9-4.9,46.6-14.1,66.8-38.5,8.5-10.3,11.3-21.7,10.7-33-2.8,5.3-7.5,9.6-14.7,12.5Z" fill="#c18f4d" stroke-width="0"/>
  <path id="line4" d="M65.4,63.1c-3.7,5.4-9.7,6.9-14,4.1" fill="none" stroke="#5b4728" stroke-linecap="round" stroke-linejoin="round" stroke-width="7.1"/>
  <path id="line3" d="M142,107.4c-6.4,1.5-11.8-1.5-13.1-6.4" fill="none" stroke="#5b4728" stroke-linecap="round" stroke-linejoin="round" stroke-width="7.1"/>
  <path id="line2" d="M59.2,140.2c6.3,1.6,9.8,6.7,8.8,11.7" fill="none" stroke="#5b4728" stroke-linecap="round" stroke-linejoin="round" stroke-width="7.1"/>
  <path id="line1" d="M9.5,72.9c6.7-11.9,36.3-52.2,73.9-53.2,54.7-1.4,70,18.5,83.3,31.8,16.5,16.5,43.5,58.4,17.5,89.8-20.2,24.4-38.9,33.6-66.8,38.5-34.6,6.1-74.4-4.1-93.7-21.4S3.3,83.9,9.5,72.9Z" fill="none" stroke="#333" stroke-miterlimit="10" stroke-width="7.1"/>
</svg>